<svg version="1" xmlns="http://www.w3.org/2000/svg" width="5888" height="5888" viewBox="0 0 4416.000000 4416.000000"><path d="M564.7 63.6c-.1.1-6 .5-13.2.8-15.7.8-22.5 1.3-38.2 3.1-29.7 3.4-58.6 9.2-89.3 17.7-10.6 2.9-44 13.9-49.5 16.2-1.6.7-8.8 3.7-16 6.6-23.4 9.5-50.2 23.2-81.3 41.5-22.6 13.3-57.9 39.7-83 62-16.3 14.4-48.8 47.9-57.3 59-1.3 1.6-2.6 3.2-2.9 3.5-1.4 1.2-13.3 16.3-19.7 25-33.2 44.9-58.9 92.4-78.2 144.5-6.1 16.3-7.6 20.7-8.9 25.5-.6 1.9-2.4 8-4 13.5-5.5 18.4-11.4 43.2-13.8 58.4-.3 1.8-.8 4.3-1 5.5-.5 2.4-2 12.3-2.9 18.1-.6 4.3-1.2 10.1-2 18-.3 2.7-.8 6.8-1 9C1.1 603.7.6 618.6.6 645c0 26.8.3 34.5 1.9 53.5.5 6.1 3.2 27.9 4 32.5.2 1.4.7 4.3 1 6.5 1.3 8.1 1.7 10.2 4.1 22.5 1.4 6.9 2.7 13.6 3 14.9.3 1.4.7 2.8.9 3.1.2.4.7 2.2 1 4.1.3 1.8 2 8.1 3.6 13.9 1.7 5.8 3.2 11.4 3.4 12.5 1.4 6.6 15.2 45.9 20 57C61 905.9 76 934.1 96.6 965c5.6 8.5 11 16.4 11.8 17.5.9 1.1 3.4 4.5 5.7 7.5 16.6 22.7 32.8 41.5 55.4 64.4 11.9 12 27.9 26.8 37.5 34.6 3 2.5 5.9 4.9 6.5 5.5.7.5 2.6 2.1 4.4 3.5 1.8 1.4 4.4 3.5 5.9 4.8 10.1 8.4 59.5 42.2 61.8 42.2.2 0 2.1 1.1 4.2 2.3 16.1 10.2 46.3 25 73.7 36.2 23.2 9.5 61.9 22.1 76.6 25 .9.2 3.3.8 5.5 1.4 6.1 1.6 16.5 3.9 20.4 4.6 1.9.3 4.6.8 6 1 5.9 1.2 8 1.6 16.6 3 5.1.8 11.4 1.7 14 2 2.7.3 6 .8 7.3 1 1.4.2 5.4.7 9 1.1 3.6.3 8.2.7 10.1 1 24.3 2.5 76.5 2.5 104 0 14.7-1.4 18.5-1.8 28-3.2 5.8-.8 11.9-1.7 13.5-2 1.7-.3 3.9-.7 5-.9 1.1-.1 3.8-.6 6-1s4.7-.9 5.5-1c50.5-9.5 103.3-27.5 150.5-51.3 13-6.6 20-10.4 37.5-20.4 11.1-6.4 32.8-21.1 50-33.8 42.6-31.4 84.7-73.6 116.6-116.5 5.7-7.7 10.7-14.5 11.2-15 3.4-4.5 16.3-24.3 22.4-34.5 33.7-56.4 56.4-113.6 69.9-176 1.6-7.4 3.2-14.9 3.4-16.5.3-1.7 1-5.3 1.5-8 .5-2.8 1.2-6.8 1.5-9 .3-2.3.7-5 .9-6 .6-3 2-15 3.1-26 3.6-34.5 3.6-84.1 0-114.5-.3-2.5-.7-7.1-1-10.2-.2-3.1-.9-8.5-1.4-12-.5-3.5-1.2-8.1-1.6-10.3-1.7-11.7-5.4-30.9-8.6-44-1.1-4.4-2.1-8.9-2.4-10-2.7-11.7-8-29-14.5-48-34.2-99-98.1-190.5-180-257.6-11-9-22.9-18.2-29.6-22.9-47.5-33.2-87.8-54.7-137.6-73.4-12-4.4-39.7-13.5-46.4-15.1-1.1-.3-7.3-1.8-13.9-3.5-10.2-2.6-17.8-4.3-29-6.6-5.3-1.1-31.6-5.3-36.4-5.9-3-.3-6.4-.8-7.5-1-4.2-.9-15.4-1.8-37.6-3-11.6-.7-46.8-1.3-47.3-.9zm46 277.7c.4.2 3.7.8 7.3 1.1 3.6.4 7.9.9 9.7 1.2 3.7.6 30 6.2 32.3 6.8.8.3 4.9 1.4 9 2.6 4.1 1.2 10.4 3.3 14 4.6 3.6 1.4 9 3.5 12 4.6 9.2 3.5 31.9 14.8 42.3 21.1 65.5 39.5 114.2 102 135.6 174.2 3.8 12.9 5.5 19.3 6.5 25 .3 1.6.8 4.1 1.1 5.5.7 3.5 2.2 12.3 3 18 2.5 17.8 2.6 62.4.1 76-.3 1.4-.7 4.6-1.1 7.3-.8 6.4-5 26.6-7.4 35.7-6.6 24.7-18.5 52.5-32.8 76.2-6.1 10.3-19.2 29.2-24.4 35.3-12.6 14.7-29.9 32.1-41.9 42.1-28.8 24-61.2 42.2-96.7 54.4-19.3 6.7-47.8 13-65.3 14.5-3.6.4-8.1.8-10 1-3.9.5-39.5.6-45 .1-11.9-1-20.2-2-26-3.1-1.4-.3-4.1-.7-6-1-1.9-.3-6.3-1.2-9.6-2-3.4-.8-7.3-1.6-8.5-1.9-5.4-1.1-24-6.7-31.9-9.6-17.8-6.5-43.5-19.2-58.2-28.7-5.2-3.4-24.9-17.3-26.4-18.8-.7-.5-3.1-2.6-5.5-4.5-5.9-4.7-15.1-13.1-22.6-20.9-38.9-39.6-66.2-88.4-78.9-141.1-2.8-11.5-2.8-11.5-3.9-18-.4-2.5-.9-5.4-1.1-6.4-.2-1.1-.6-4-.9-6.5-.3-2.5-.7-5.7-1-7.1-.7-3.4-1.9-26.7-1.9-36.5 0-8.4 1.1-27.2 1.8-31.5.3-1.4.7-4.3 1-6.5 1.1-8.8 3.8-24.1 4.6-26.5.5-1.4 1.1-3.9 1.4-5.5.4-2.8 7-25.3 8.3-28.5.3-.8.7-1.7.8-2 4.1-11.8 16-37.6 23.2-50C354.5 428.3 417 377.8 487 355.2c12.4-4 29.9-8.6 37.4-9.7 2.1-.4 4.8-.9 6-1.1 1.1-.2 4.4-.7 7.1-1 2.8-.4 5.2-.8 5.5-.9.3-.2 4.8-.7 10-1 5.2-.4 9.7-.9 9.8-1 .6-.6 46.9.2 47.9.8zM1683.7 676.6c-.1.1-6.6.5-14.5.8-7.9.4-15.1.9-16 1.1-.9.1-4.8.6-8.5 1-3.7.3-7.6.8-8.5.9-.9.2-3.9.7-6.5 1-2.7.4-5.8.9-7 1.2-1.2.2-3.9.6-6.2.9-2.2.3-4.7.8-5.5 1-.8.2-3.1.7-5 1-1.9.3-5.3 1.1-7.5 1.7-2.2.5-5.1 1.2-6.5 1.4-1.4.3-5.9 1.4-10 2.5-4.1 1.2-8.5 2.3-9.8 2.5-4.2.8-38.7 12.5-39.7 13.5-.5.5-1.5.9-2.3.9-.8 0-7.8 2.8-15.5 6.2-67.7 29.7-125.3 72.9-172.6 129.5-11.3 13.6-27.5 35.9-34.7 47.6-1.6 2.7-3.7 6.1-4.6 7.5-1 1.5-2.2 3.6-2.8 4.7-.6 1.1-2.6 4.7-4.6 8-4.1 7.1-19.1 37-21.8 43.5-6.8 16.6-9.3 23.3-14.1 37.5-4.3 12.8-10 33-12 42.5-.2.8-.8 3.5-1.4 6-1.7 7.4-4.5 23.5-5.6 32-.3 2.5-.8 5.6-1 7-3.6 24.7-4.2 86.8-1 107.1.2 1.3.6 5.3 1 8.8.3 3.6.7 6.7.9 7 .2.3.7 3.3 1.1 6.5 1 8.7 5.1 29.1 9.1 44.6 3.5 13.8 13.7 45.5 16.1 50 .7 1.4 1.3 2.8 1.3 3.3 0 3.2 18.6 41.9 28.4 59.2 12.2 21.3 36.7 56.4 48.2 69 1.1 1.2 4.8 5.4 8.4 9.5 9.9 11.4 29.5 30.7 43.7 43.1 4.6 4 26.2 21.1 31.8 25.1 38.2 27.3 82.4 49.7 127 64.1 16.3 5.3 43.5 12.3 54.8 14.1 1.5.3 3.5.7 4.5 1 .9.2 4 .7 6.7 1.1 2.8.3 5.7.8 6.5 1 .8.2 3.8.6 6.5 1 2.8.3 6.8.8 9 1 9.3 1.2 12.6 1.5 24 2.2 21.8 1.3 61.3.7 75.5-1.2 1.9-.3 5.5-.7 8-1 5.5-.5 11.7-1.3 19-2.5 3-.6 7.3-1.2 9.5-1.5 2.2-.4 4.8-.8 5.7-1.1 1-.3 3-.7 4.5-1 1.6-.3 5.7-1.2 9.3-2 3.6-.9 7.6-1.8 9-2 1.4-.3 3.4-.8 4.5-1.1 1.1-.4 2.5-.8 3-.9 6.1-1.2 34-10.2 46.5-14.9 15.9-6.1 50.5-22.2 59-27.5.8-.5 4.4-2.6 8-4.6 36.2-20.5 79-55 109-88 10.6-11.7 12.6-14 21.6-25.4 30-38.1 54-80.7 70.7-125.5 5.9-15.8 11.5-33.9 15.3-49.5.2-.8 1-4.4 1.9-8 2.2-8.9 5.4-26.2 7-38 .3-2.5.8-5.9 1.1-7.5.3-1.7.7-5 .9-7.5.2-2.5.8-8.3 1.2-13 1.6-17.6.8-72.3-1.3-86.5-.2-1.7-.6-5-.9-7.5-.6-6-1.4-11.9-2-15-.3-1.4-.7-4-1-5.7-.3-1.8-1.5-7.9-2.6-13.5-1.1-5.7-2.3-11.4-2.5-12.8-1.2-6.5-7.1-27.1-12.1-42-9.4-28.3-22.3-57.1-37.6-83.6-7.5-13.1-8.5-14.7-17.9-28.8-5.4-7.9-22.9-31.4-27.2-36.4-12.6-14.6-17-19.3-29.3-31.7-39.1-39.4-87.9-73-137.8-94.9-6-2.7-12.3-5.5-14-6.2-6.1-2.7-35.6-13.1-39.8-13.9-.9-.2-2-.6-2.5-.8-.7-.5-22-6.2-26.3-7.1-1.3-.3-3.5-.8-4.9-1.1-2.3-.5-12.5-2.6-19.5-3.9-5.9-1.2-22.1-3.5-29-4.2-3.8-.3-7.8-.8-8.7-1-5.7-1-56.1-2.6-57.1-1.8zm36.8 277.7c1.1.3 4.2.8 6.8 1.1 6.4.9 25.6 5.9 33.2 8.6 10 3.6 28.5 12.9 37.3 18.7 41.1 27.1 69.9 68.5 80.3 115.6 3.1 13.8 4.3 25.1 4.3 40.7 0 16.1-1.3 26.3-5.5 43.7-15 61.6-63.1 112.9-123.7 131.8-12.1 3.7-20.4 5.6-31.2 7-2.5.3-6.1.8-8 1-4.3.6-28.7.7-31.5.1-1.1-.2-5.1-.7-9-1.1-11.8-1.2-28-5.3-42.5-10.8-42.7-16.3-78.9-49.4-99.3-90.8-4.7-9.7-11-25.5-12.2-30.9-.2-.8-1-4.2-1.8-7.5-5.8-23.2-6.8-52.1-2.7-74 .5-2.8 1.1-6.1 1.4-7.5 2.2-13.2 11.9-38.6 20.8-54.5 13.8-24.4 38.8-50 64-65.3 10.6-6.5 29.2-15.4 34.8-16.7.8-.2 2.7-.8 4.3-1.4 3.6-1.4 17.3-4.9 22.3-5.7 2.1-.3 4.1-.7 4.5-.9.3-.2 3.9-.7 8-1.1 4-.3 7.6-.8 7.8-1 .6-.6 35 .3 37.6.9zM1110.5 2984.9c.1 670.2.4 1219.5.7 1220.6.3 1.1.9 4.2 1.2 7 2.7 20.3 12.5 45.6 25.3 65 28.6 43.4 74.6 71 125.3 75.1 11.9 1 2634.7 1.1 2650 .1 6.9-.4 14.3-1 16.5-1.3 2.2-.2 8.2-.9 13.4-1.5 5.1-.6 10.1-1.2 11-1.4.9-.1 3.6-.6 6.1-.9 2.5-.3 5.6-.8 7-1.1 1.3-.2 4.2-.7 6.4-1.1 2.2-.3 4.3-.7 4.6-.9.3-.2 2.2-.6 4.2-.9 2.1-.3 5.9-1.1 8.5-1.7 2.7-.6 5.6-1.2 6.5-1.4 8.8-1.8 45.1-12.5 51.8-15.2.8-.4 1.7-.7 2-.8 3.7-1.3 21.2-8.1 24.5-9.6 2.2-.9 8.3-3.6 13.5-5.9 28.5-12.5 61.9-31.7 90.3-51.8 10.5-7.4 31.9-24.1 38.7-30.1 1.4-1.3 5.4-4.8 9-7.9 14.6-12.8 42.3-41.8 58.5-61.3 16.1-19.3 41.9-56.8 54.2-78.9 6.8-12.2 9.3-16.8 16.3-30.8 29.5-59 49.5-125 55.5-183.2.3-3 .7-7.1.9-9 .6-4.5 1.6-17.2 2.2-28 .5-9.7.5-52.2 0-59-.2-2.5-.7-8.3-1-13-.7-8.4-1.1-12.7-2.2-20.5-.2-2.2-.7-5.8-1-8-.7-5.6-2.3-15.5-2.9-18.5-.3-1.4-.8-4.1-1.1-6.1-.4-2.9-6.3-29.3-7.8-34.9-15.3-58.5-40.1-114.3-73.5-165.5-5.6-8.5-19.5-28.5-22.2-31.9-.5-.6-4.8-6.1-9.5-12.1-24.6-31.3-57.4-64.5-86.9-87.9-3.3-2.6-6.7-5.3-7.5-5.9-.8-.7-3.6-2.8-6.1-4.8l-4.7-3.5 5.2-5.5c10.5-11.4 13.3-14.6 19.6-22.4 3.6-4.4 6.9-8.5 7.5-9.2 2-2.4 3.1-3.9 9.6-12.8 37.3-51.2 65.2-110.6 79.9-170 2.2-8.8 4.2-17.6 4.5-19.5.3-1.9.8-4.2 1-5 .2-.8.7-3 1-4.8.3-1.7.8-4.7 1.1-6.5.3-1.7.7-4.3.9-5.7.2-1.4.6-4.1.9-6 .7-4.3 2.4-18 3-24 2.7-26.3 2.8-78.3.2-104-.2-1.9-.7-6.9-1.1-11-.4-4.1-.9-8.2-1-9.2-.2-.9-.6-3.8-1-6.5-.6-4.3-2.8-17.8-4-24.3-.2-1.4-.6-3.6-.9-5-.2-1.4-1.2-5.7-2.1-9.5-.9-3.9-1.9-8.1-2.1-9.5-2.7-14.1-13.2-46.8-22.6-70.5-5.1-12.8-23.1-50.6-28.6-60-9.4-16.2-12.6-21.6-19-31.5-4.1-6.3-7.8-11.7-8.3-11.8-.5-.2-.9-.8-.9-1.3 0-1.7-27.9-38-33-42.9-.3-.3-2.5-2.8-4.9-5.5-9.8-11-28.3-29.6-41.6-41.5-24.9-22.3-61-47.9-91.5-64.9-6.7-3.8-43.5-22-48.5-24.1-1.1-.4-3.6-1.5-5.5-2.3-14.4-6.2-42.9-16.6-50-18.2-.8-.2-4.6-1.3-8.5-2.5-22-6.5-56.1-13.7-74.1-15.5-3.2-.3-7-.8-8.4-1-5-.8-21-2.2-33.5-3.1-4.9-.3-130.3-.6-278.5-.6h-269.5l.1-361.3.1-361.2H1110.3l.2 1218.6zm1846.5-694v197.9H1437V2093h1520v197.9zm803.5 504.4c2.8.3 6.8.9 9 1.2 2.2.3 5.1.7 6.5 1 1.4.3 4.1.8 6 1.1 27.9 5 58.1 17 82.5 32.9 46.5 30.4 80.9 81.4 92.1 137 2.6 13.1 2.7 13.7 4.1 28 .9 10.1.9 38-.1 46.5-1.2 10.3-1.6 13.2-2.1 15.9-.2 1.4-.6 4-.9 5.7-1.3 7.1-6.7 27-9.6 35.1-6.7 18.6-19.9 43.1-30.9 57.8-2.5 3.3-4.9 6.4-5.3 7-8.1 10.9-24.1 26.1-41.8 39.8-6.4 4.9-20.8 13.6-32 19.2-8.8 4.5-28 12.4-31.5 13.1-1.1.2-3.1.8-4.5 1.3-6.6 2.5-26.6 6.8-40 8.5-13.1 1.7-38.2 2-231 2l-209.5.1V2794l217 .3c119.3.2 219.3.6 222 1zm8.5 743.1c6.3.4 12.6.9 14 1.1 1.4.2 5.4.7 9 1 3.6.3 9 1 12 1.5s8 1.1 11.1 1.5c3.1.3 6.5.7 7.5.9 1.1.2 6 .9 10.9 1.5 40.3 5.3 76.8 20 109.7 44.3 16.9 12.4 34 29 45.4 44 2.7 3.5 5.1 6.5 5.4 6.8.3.3 3.9 5.7 8 12 15.5 23.9 29.2 55.4 34.6 79.5 5.3 23.9 6.4 33.5 6.5 56.6.1 36.6-6.5 69.2-21.1 103.4-14.9 35-37.7 66.8-67 93.1-6.4 5.7-22.6 17.6-32 23.5-9.1 5.6-28.1 15.3-32 16.3-.3.1-3.1 1.2-6.4 2.4-5.2 2-17.2 5.7-21.9 6.7-1 .2-2.6.6-3.5.9-.9.3-3 .8-4.7 1.1-5.3.9-15.9 2.7-18 3-1.1.2-4.7.8-8 1.4-3.3.6-8.2 1.3-11 1.6-2.7.3-5.9.8-7 1-1.1.2-5.1.7-9 1-3.8.3-9.2.9-12 1.2-8.4 1.1-466.8 1.5-467.4.4-.5-.7-.7-508.6-.2-508.6 13.2-.4 439.4.4 447.1.9z"/></svg>